<mxfile host="Electron" agent="Mozilla/5.0 (Windows NT 10.0; Win64; x64) AppleWebKit/537.36 (KHTML, like Gecko) draw.io/25.0.2 Chrome/128.0.6613.186 Electron/32.2.5 Safari/537.36" version="25.0.2">
  <diagram name="PÃ¡gina-1" id="XoVfdVzmXT0FCT3dWPdM">
    <mxGraphModel dx="1500" dy="887" grid="1" gridSize="10" guides="1" tooltips="1" connect="1" arrows="1" fold="1" page="1" pageScale="1" pageWidth="827" pageHeight="1169" background="none" math="0" shadow="1">
      <root>
        <mxCell id="0" />
        <mxCell id="1" parent="0" />
        <mxCell id="zbPfbXJBPThH78bdl0lX-3" value="INICIO - extraer_letras_proveedor" style="ellipse;whiteSpace=wrap;rounded=1;fillColor=#dae8fc;strokeColor=#6c8ebf;textShadow=1;strokeWidth=1;shadow=1;html=1;horizontal=1;fontSize=11;fontStyle=0;spacing=2;" parent="1" vertex="1">
          <mxGeometry x="200" y="10" width="140" height="80" as="geometry" />
        </mxCell>
        <mxCell id="TYjIKIOvfWScRao-GQ0c-22" style="edgeStyle=orthogonalEdgeStyle;rounded=0;orthogonalLoop=1;jettySize=auto;html=1;exitX=1;exitY=0.5;exitDx=0;exitDy=0;fillColor=#dae8fc;strokeColor=#6c8ebf;" edge="1" parent="1" source="zbPfbXJBPThH78bdl0lX-4">
          <mxGeometry relative="1" as="geometry">
            <mxPoint x="270" y="500" as="targetPoint" />
            <Array as="points">
              <mxPoint x="730" y="217" />
              <mxPoint x="730" y="480" />
              <mxPoint x="270" y="480" />
            </Array>
          </mxGeometry>
        </mxCell>
        <mxCell id="TYjIKIOvfWScRao-GQ0c-23" value="NO" style="edgeLabel;html=1;align=center;verticalAlign=middle;resizable=0;points=[];" vertex="1" connectable="0" parent="TYjIKIOvfWScRao-GQ0c-22">
          <mxGeometry x="-0.5959" y="1" relative="1" as="geometry">
            <mxPoint as="offset" />
          </mxGeometry>
        </mxCell>
        <mxCell id="zbPfbXJBPThH78bdl0lX-4" value="i &amp;lt; 2" style="rhombus;whiteSpace=wrap;rounded=1;fillColor=#f8cecc;strokeColor=#b85450;textShadow=1;strokeWidth=1;shadow=1;html=1;horizontal=1;fontSize=11;fontStyle=0;spacing=2;" parent="1" vertex="1">
          <mxGeometry x="230" y="187" width="80" height="60" as="geometry" />
        </mxCell>
        <mxCell id="diIYHUBXAm4dYaVSVekb-1" value="FIN- extraer_letras_proveedor" style="ellipse;whiteSpace=wrap;rounded=1;fillColor=#dae8fc;strokeColor=#6c8ebf;textShadow=1;strokeWidth=1;shadow=1;html=1;horizontal=1;fontSize=11;fontStyle=0;spacing=2;" parent="1" vertex="1">
          <mxGeometry x="200" y="575" width="140" height="80" as="geometry" />
        </mxCell>
        <mxCell id="TYjIKIOvfWScRao-GQ0c-1" value="letras = &quot;&quot;;" style="rounded=1;whiteSpace=wrap;fillColor=#fff2cc;strokeColor=#d6b656;textShadow=1;strokeWidth=1;shadow=1;html=1;horizontal=1;fontSize=11;fontStyle=0;spacing=2;" vertex="1" parent="1">
          <mxGeometry x="102.80000000000001" y="120" width="334.4" height="40" as="geometry" />
        </mxCell>
        <mxCell id="TYjIKIOvfWScRao-GQ0c-2" value="" style="edgeStyle=orthogonalEdgeStyle;rounded=1;orthogonalLoop=1;jettySize=auto;fillColor=#dae8fc;strokeColor=#6c8ebf;textShadow=1;strokeWidth=1;shadow=1;html=1;horizontal=1;fontSize=11;fontStyle=0;spacing=2;exitX=0.5;exitY=1;exitDx=0;exitDy=0;" edge="1" parent="1">
          <mxGeometry relative="1" as="geometry">
            <mxPoint x="269.79" y="90" as="sourcePoint" />
            <mxPoint x="270" y="120" as="targetPoint" />
          </mxGeometry>
        </mxCell>
        <mxCell id="TYjIKIOvfWScRao-GQ0c-4" value="" style="edgeStyle=orthogonalEdgeStyle;rounded=1;orthogonalLoop=1;jettySize=auto;fillColor=#dae8fc;strokeColor=#6c8ebf;textShadow=1;strokeWidth=1;shadow=1;html=1;horizontal=1;fontSize=11;fontStyle=0;spacing=2;exitX=0.5;exitY=1;exitDx=0;exitDy=0;" edge="1" parent="1">
          <mxGeometry relative="1" as="geometry">
            <mxPoint x="269.71000000000004" y="160" as="sourcePoint" />
            <mxPoint x="269.92" y="190" as="targetPoint" />
          </mxGeometry>
        </mxCell>
        <mxCell id="TYjIKIOvfWScRao-GQ0c-5" value="" style="edgeStyle=orthogonalEdgeStyle;rounded=1;orthogonalLoop=1;jettySize=auto;fillColor=#dae8fc;strokeColor=#6c8ebf;textShadow=1;strokeWidth=1;shadow=1;html=1;horizontal=1;fontSize=11;fontStyle=0;spacing=2;exitX=0.5;exitY=1;exitDx=0;exitDy=0;" edge="1" parent="1">
          <mxGeometry relative="1" as="geometry">
            <mxPoint x="269.71000000000004" y="247" as="sourcePoint" />
            <mxPoint x="269.92" y="277" as="targetPoint" />
          </mxGeometry>
        </mxCell>
        <mxCell id="TYjIKIOvfWScRao-GQ0c-6" value="SI" style="edgeLabel;html=1;align=center;verticalAlign=middle;resizable=0;points=[];" vertex="1" connectable="0" parent="TYjIKIOvfWScRao-GQ0c-5">
          <mxGeometry x="-0.2726" relative="1" as="geometry">
            <mxPoint as="offset" />
          </mxGeometry>
        </mxCell>
        <mxCell id="TYjIKIOvfWScRao-GQ0c-7" value="letras = letras + toupper(proveedor[i]);" style="rounded=1;whiteSpace=wrap;fillColor=#fff2cc;strokeColor=#d6b656;textShadow=1;strokeWidth=1;shadow=1;html=1;horizontal=1;fontSize=11;fontStyle=0;spacing=2;" vertex="1" parent="1">
          <mxGeometry x="102.80000000000001" y="396" width="334.4" height="40" as="geometry" />
        </mxCell>
        <mxCell id="TYjIKIOvfWScRao-GQ0c-11" style="edgeStyle=orthogonalEdgeStyle;rounded=0;orthogonalLoop=1;jettySize=auto;html=1;fillColor=#dae8fc;strokeColor=#6c8ebf;entryX=0.476;entryY=-0.029;entryDx=0;entryDy=0;entryPerimeter=0;" edge="1" parent="1" target="TYjIKIOvfWScRao-GQ0c-15">
          <mxGeometry relative="1" as="geometry">
            <mxPoint x="660" y="340" as="targetPoint" />
            <mxPoint x="343" y="321" as="sourcePoint" />
            <Array as="points">
              <mxPoint x="343" y="322" />
              <mxPoint x="581" y="322" />
            </Array>
          </mxGeometry>
        </mxCell>
        <mxCell id="TYjIKIOvfWScRao-GQ0c-20" value="NO" style="edgeLabel;html=1;align=center;verticalAlign=middle;resizable=0;points=[];" vertex="1" connectable="0" parent="TYjIKIOvfWScRao-GQ0c-11">
          <mxGeometry x="-0.4014" relative="1" as="geometry">
            <mxPoint as="offset" />
          </mxGeometry>
        </mxCell>
        <mxCell id="TYjIKIOvfWScRao-GQ0c-8" value="(proveedor[i] != &#39; &#39;) Y (proveedor[i] != &#39;\0&#39;)" style="rhombus;whiteSpace=wrap;rounded=1;fillColor=#f8cecc;strokeColor=#b85450;textShadow=1;strokeWidth=1;shadow=1;html=1;horizontal=1;fontSize=11;fontStyle=0;spacing=2;" vertex="1" parent="1">
          <mxGeometry x="194" y="277" width="152" height="88" as="geometry" />
        </mxCell>
        <mxCell id="TYjIKIOvfWScRao-GQ0c-9" value="" style="edgeStyle=orthogonalEdgeStyle;rounded=1;orthogonalLoop=1;jettySize=auto;fillColor=#dae8fc;strokeColor=#6c8ebf;textShadow=1;strokeWidth=1;shadow=1;html=1;horizontal=1;fontSize=11;fontStyle=0;spacing=2;exitX=0.5;exitY=1;exitDx=0;exitDy=0;" edge="1" parent="1">
          <mxGeometry relative="1" as="geometry">
            <mxPoint x="269.71000000000004" y="365" as="sourcePoint" />
            <mxPoint x="269.92" y="395" as="targetPoint" />
          </mxGeometry>
        </mxCell>
        <mxCell id="TYjIKIOvfWScRao-GQ0c-10" value="SI" style="edgeLabel;html=1;align=center;verticalAlign=middle;resizable=0;points=[];" vertex="1" connectable="0" parent="TYjIKIOvfWScRao-GQ0c-9">
          <mxGeometry x="-0.2726" relative="1" as="geometry">
            <mxPoint as="offset" />
          </mxGeometry>
        </mxCell>
        <mxCell id="TYjIKIOvfWScRao-GQ0c-12" value="REGRESA letras;" style="rounded=1;whiteSpace=wrap;fillColor=#fff2cc;strokeColor=#d6b656;textShadow=1;strokeWidth=1;shadow=1;html=1;horizontal=1;fontSize=11;fontStyle=0;spacing=2;" vertex="1" parent="1">
          <mxGeometry x="167.2" y="500" width="205.6" height="40" as="geometry" />
        </mxCell>
        <mxCell id="TYjIKIOvfWScRao-GQ0c-14" value="" style="edgeStyle=orthogonalEdgeStyle;rounded=1;orthogonalLoop=1;jettySize=auto;fillColor=#dae8fc;strokeColor=#6c8ebf;textShadow=1;strokeWidth=1;shadow=1;html=1;horizontal=1;fontSize=11;fontStyle=0;spacing=2;exitX=0.5;exitY=1;exitDx=0;exitDy=0;" edge="1" parent="1">
          <mxGeometry relative="1" as="geometry">
            <mxPoint x="269.80000000000007" y="436" as="sourcePoint" />
            <mxPoint x="270" y="180" as="targetPoint" />
            <Array as="points">
              <mxPoint x="270" y="470" />
              <mxPoint x="60" y="470" />
              <mxPoint x="60" y="180" />
            </Array>
          </mxGeometry>
        </mxCell>
        <mxCell id="TYjIKIOvfWScRao-GQ0c-19" style="edgeStyle=orthogonalEdgeStyle;rounded=0;orthogonalLoop=1;jettySize=auto;html=1;fillColor=#dae8fc;strokeColor=#6c8ebf;" edge="1" parent="1">
          <mxGeometry relative="1" as="geometry">
            <mxPoint x="270" y="451.84" as="targetPoint" />
            <mxPoint x="580" y="436" as="sourcePoint" />
            <Array as="points">
              <mxPoint x="580" y="452" />
            </Array>
          </mxGeometry>
        </mxCell>
        <mxCell id="TYjIKIOvfWScRao-GQ0c-15" value="letras = letras + &#39;X&#39;;" style="rounded=1;whiteSpace=wrap;fillColor=#fff2cc;strokeColor=#d6b656;textShadow=1;strokeWidth=1;shadow=1;html=1;horizontal=1;fontSize=11;fontStyle=0;spacing=2;" vertex="1" parent="1">
          <mxGeometry x="460" y="396" width="254.4" height="40" as="geometry" />
        </mxCell>
        <mxCell id="TYjIKIOvfWScRao-GQ0c-18" value="" style="edgeStyle=orthogonalEdgeStyle;rounded=1;orthogonalLoop=1;jettySize=auto;fillColor=#dae8fc;strokeColor=#6c8ebf;textShadow=1;strokeWidth=1;shadow=1;html=1;horizontal=1;fontSize=11;fontStyle=0;spacing=2;exitX=0.5;exitY=1;exitDx=0;exitDy=0;" edge="1" parent="1">
          <mxGeometry relative="1" as="geometry">
            <mxPoint x="269.58000000000004" y="540" as="sourcePoint" />
            <mxPoint x="269.79" y="570" as="targetPoint" />
          </mxGeometry>
        </mxCell>
      </root>
    </mxGraphModel>
  </diagram>
</mxfile>
